<?xml version="1.0" encoding="utf-8"?>
<svg version="1.1" xmlns:xlink="http://www.w3.org/1999/xlink" width="32px" height="28px" xmlns="http://www.w3.org/2000/svg">
  <g transform="matrix(1 0 0 1 -309 -791 )">
    <path d="M 16.7857142857143 27.671875  C 16.5714285714286 27.890625  16.3095238095238 28  16 28  C 15.6904761904762 28  15.4285714285714 27.890625  15.2142857142857 27.671875  L 4.07142857142857 16.6979166666667  C 3.95238095238095 16.6006944444444  3.78869047619048 16.4427083333333  3.58035714285714 16.2239583333333  C 3.37202380952381 16.0052083333333  3.04166666666667 15.6072048611111  2.58928571428571 15.0299479166667  C 2.13690476190476 14.4526909722222  1.73214285714286 13.8602430555556  1.375 13.2526041666667  C 1.01785714285714 12.6449652777778  0.699404761904762 11.9097222222222  0.419642857142857 11.046875  C 0.139880952380952 10.1840277777778  0 9.34548611111111  0 8.53125  C 0 5.85763888888889  0.755952380952381 3.76736111111111  2.26785714285714 2.26041666666667  C 3.77976190476191 0.753472222222222  5.86904761904762 0  8.53571428571429 0  C 9.27380952380952 0  10.0267857142857 0.130642361111109  10.7946428571429 0.391927083333334  C 11.5625 0.653211805555553  12.2767857142857 1.00564236111111  12.9375 1.44921875  C 13.5982142857143 1.89279513888889  14.1666666666667 2.30902777777778  14.6428571428571 2.69791666666667  C 15.1190476190476 3.08680555555555  15.5714285714286 3.5  16 3.9375  C 16.4285714285714 3.5  16.8809523809524 3.08680555555555  17.3571428571429 2.69791666666667  C 17.8333333333333 2.30902777777778  18.4017857142857 1.89279513888889  19.0625 1.44921875  C 19.7232142857143 1.00564236111111  20.4375 0.653211805555553  21.2053571428571 0.391927083333334  C 21.9732142857143 0.130642361111109  22.7261904761905 0  23.4642857142857 0  C 26.1309523809524 0  28.2202380952381 0.753472222222222  29.7321428571429 2.26041666666667  C 31.2440476190476 3.76736111111111  32 5.85763888888889  32 8.53125  C 32 11.2170138888889  30.6369047619048 13.9513888888889  27.9107142857143 16.734375  L 16.7857142857143 27.671875  Z " fill-rule="nonzero" fill="#a1aaa6" stroke="none" fill-opacity="0.996078431372549" transform="matrix(1 0 0 1 309 791 )" />
  </g>
</svg>