<?xml version="1.0" encoding="utf-8"?>
<svg version="1.1" xmlns:xlink="http://www.w3.org/1999/xlink" width="363px" height="482px" xmlns="http://www.w3.org/2000/svg">
  <defs>
    <filter x="20px" y="1338px" width="363px" height="482px" filterUnits="userSpaceOnUse" id="filter29">
      <feOffset dx="0" dy="0" in="SourceAlpha" result="shadowOffsetInner" />
      <feGaussianBlur stdDeviation="15" in="shadowOffsetInner" result="shadowGaussian" />
      <feComposite in2="shadowGaussian" operator="atop" in="SourceAlpha" result="shadowComposite" />
      <feColorMatrix type="matrix" values="0 0 0 0 0.843137254901961  0 0 0 0 0.843137254901961  0 0 0 0 0.843137254901961  0 0 0 1 0  " in="shadowComposite" />
    </filter>
    <g id="widget30">
      <path d="M 51 1398  A 29 29 0 0 1 80 1369 L 323 1369  A 29 29 0 0 1 352 1398 L 352 1760  A 29 29 0 0 1 323 1789 L 80 1789  A 29 29 0 0 1 51 1760 L 51 1398  Z " fill-rule="nonzero" fill="#ffffff" stroke="none" fill-opacity="0.996078431372549" />
      <path d="M 50.5 1398  A 29.5 29.5 0 0 1 80 1368.5 L 323 1368.5  A 29.5 29.5 0 0 1 352.5 1398 L 352.5 1760  A 29.5 29.5 0 0 1 323 1789.5 L 80 1789.5  A 29.5 29.5 0 0 1 50.5 1760 L 50.5 1398  Z " stroke-width="1" stroke="#f2f2f2" fill="none" stroke-opacity="0.67843137254902" />
    </g>
  </defs>
  <g transform="matrix(1 0 0 1 -20 -1338 )">
    <use xlink:href="#widget30" filter="url(#filter29)" />
    <use xlink:href="#widget30" />
  </g>
</svg>