<?xml version="1.0" encoding="utf-8"?>
<svg version="1.1" xmlns:xlink="http://www.w3.org/1999/xlink" width="363px" height="622px" xmlns="http://www.w3.org/2000/svg">
  <defs>
    <filter x="373px" y="1101px" width="363px" height="622px" filterUnits="userSpaceOnUse" id="filter31">
      <feOffset dx="0" dy="0" in="SourceAlpha" result="shadowOffsetInner" />
      <feGaussianBlur stdDeviation="15" in="shadowOffsetInner" result="shadowGaussian" />
      <feComposite in2="shadowGaussian" operator="atop" in="SourceAlpha" result="shadowComposite" />
      <feColorMatrix type="matrix" values="0 0 0 0 0.843137254901961  0 0 0 0 0.843137254901961  0 0 0 0 0.843137254901961  0 0 0 1 0  " in="shadowComposite" />
    </filter>
    <g id="widget32">
      <path d="M 404 1161  A 29 29 0 0 1 433 1132 L 676 1132  A 29 29 0 0 1 705 1161 L 705 1663  A 29 29 0 0 1 676 1692 L 433 1692  A 29 29 0 0 1 404 1663 L 404 1161  Z " fill-rule="nonzero" fill="#ffffff" stroke="none" fill-opacity="0.996078431372549" />
      <path d="M 403.5 1161  A 29.5 29.5 0 0 1 433 1131.5 L 676 1131.5  A 29.5 29.5 0 0 1 705.5 1161 L 705.5 1663  A 29.5 29.5 0 0 1 676 1692.5 L 433 1692.5  A 29.5 29.5 0 0 1 403.5 1663 L 403.5 1161  Z " stroke-width="1" stroke="#f2f2f2" fill="none" stroke-opacity="0.67843137254902" />
    </g>
  </defs>
  <g transform="matrix(1 0 0 1 -373 -1101 )">
    <use xlink:href="#widget32" filter="url(#filter31)" />
    <use xlink:href="#widget32" />
  </g>
</svg>