<?xml version="1.0" encoding="utf-8"?>
<svg version="1.1" xmlns:xlink="http://www.w3.org/1999/xlink" width="363px" height="382px" xmlns="http://www.w3.org/2000/svg">
  <defs>
    <filter x="20px" y="488px" width="363px" height="382px" filterUnits="userSpaceOnUse" id="filter37">
      <feOffset dx="0" dy="0" in="SourceAlpha" result="shadowOffsetInner" />
      <feGaussianBlur stdDeviation="15" in="shadowOffsetInner" result="shadowGaussian" />
      <feComposite in2="shadowGaussian" operator="atop" in="SourceAlpha" result="shadowComposite" />
      <feColorMatrix type="matrix" values="0 0 0 0 0.843137254901961  0 0 0 0 0.843137254901961  0 0 0 0 0.843137254901961  0 0 0 1 0  " in="shadowComposite" />
    </filter>
    <g id="widget38">
      <path d="M 51 548  A 29 29 0 0 1 80 519 L 323 519  A 29 29 0 0 1 352 548 L 352 810  A 29 29 0 0 1 323 839 L 80 839  A 29 29 0 0 1 51 810 L 51 548  Z " fill-rule="nonzero" fill="#ffffff" stroke="none" fill-opacity="0.996078431372549" />
      <path d="M 50.5 548  A 29.5 29.5 0 0 1 80 518.5 L 323 518.5  A 29.5 29.5 0 0 1 352.5 548 L 352.5 810  A 29.5 29.5 0 0 1 323 839.5 L 80 839.5  A 29.5 29.5 0 0 1 50.5 810 L 50.5 548  Z " stroke-width="1" stroke="#f2f2f2" fill="none" stroke-opacity="0.67843137254902" />
    </g>
  </defs>
  <g transform="matrix(1 0 0 1 -20 -488 )">
    <use xlink:href="#widget38" filter="url(#filter37)" />
    <use xlink:href="#widget38" />
  </g>
</svg>