<?xml version="1.0" encoding="utf-8"?>
<svg version="1.1" xmlns:xlink="http://www.w3.org/1999/xlink" width="46px" height="40px" xmlns="http://www.w3.org/2000/svg">
  <defs>
    <linearGradient gradientUnits="userSpaceOnUse" x1="0" y1="20" x2="46" y2="20" id="LinearGradient26">
      <stop id="Stop27" stop-color="#ff83a5" offset="0" />
      <stop id="Stop28" stop-color="#c280ff" offset="1" />
    </linearGradient>
  </defs>
  <g transform="matrix(1 0 0 1 -640 -772 )">
    <path d="M 24.1294642857143 39.53125  C 23.8214285714286 39.84375  23.4449404761905 40  23 40  C 22.5550595238095 40  22.1785714285714 39.84375  21.8705357142857 39.53125  L 5.85267857142857 23.8541666666667  C 5.68154761904762 23.7152777777778  5.44624255952381 23.4895833333333  5.14676339285714 23.1770833333333  C 4.84728422619048 22.8645833333333  4.37239583333333 22.2960069444444  3.72209821428571 21.4713541666667  C 3.0718005952381 20.6467013888889  2.48995535714286 19.8003472222222  1.9765625 18.9322916666667  C 1.46316964285714 18.0642361111111  1.0053943452381 17.0138888888889  0.603236607142857 15.78125  C 0.201078869047619 14.5486111111111  0 13.3506944444444  0 12.1875  C 0 8.36805555555555  1.08668154761905 5.38194444444444  3.26004464285714 3.22916666666667  C 5.43340773809524 1.07638888888889  8.43675595238095 0  12.2700892857143 0  C 13.3311011904762 0  14.4135044642857 0.186631944444442  15.5172991071429 0.559895833333335  C 16.62109375 0.933159722222219  17.6478794642857 1.43663194444444  18.59765625 2.0703125  C 19.5474330357143 2.70399305555555  20.3645833333333 3.29861111111111  21.0491071428571 3.85416666666667  C 21.733630952381 4.40972222222222  22.3839285714286 5  23 5.625  C 23.6160714285714 5  24.2663690476191 4.40972222222222  24.9508928571429 3.85416666666667  C 25.6354166666667 3.29861111111111  26.4525669642857 2.70399305555555  27.40234375 2.0703125  C 28.3521205357143 1.43663194444444  29.37890625 0.933159722222219  30.4827008928571 0.559895833333335  C 31.5864955357143 0.186631944444442  32.6688988095238 0  33.7299107142857 0  C 37.5632440476191 0  40.5665922619048 1.07638888888889  42.7399553571429 3.22916666666667  C 44.913318452381 5.38194444444444  46 8.36805555555555  46 12.1875  C 46 16.0243055555556  44.0405505952381 19.9305555555556  40.1216517857143 23.90625  L 24.1294642857143 39.53125  Z " fill-rule="nonzero" fill="url(#LinearGradient26)" stroke="none" transform="matrix(1 0 0 1 640 772 )" />
  </g>
</svg>