<?xml version="1.0" encoding="utf-8"?>
<svg version="1.1" xmlns:xlink="http://www.w3.org/1999/xlink" width="161px" height="242px" xmlns="http://www.w3.org/2000/svg">
  <defs>
    <linearGradient gradientUnits="userSpaceOnUse" x1="0" y1="121" x2="161" y2="121" id="LinearGradient20">
      <stop id="Stop21" stop-color="#ff83a5" stop-opacity="0.996078431372549" offset="0" />
      <stop id="Stop22" stop-color="#c280ff" offset="1" />
    </linearGradient>
  </defs>
  <g>
    <path d="M 4.5 30  A 25.5 25.5 0 0 1 30 4.5 L 131 4.5  A 25.5 25.5 0 0 1 156.5 30 L 156.5 212  A 25.5 25.5 0 0 1 131 237.5 L 30 237.5  A 25.5 25.5 0 0 1 4.5 212 L 4.5 30  Z " fill-rule="nonzero" fill="#ffffff" stroke="none" fill-opacity="0" />
    <path d="M 2.5 30  A 27.5 27.5 0 0 1 30 2.5 L 131 2.5  A 27.5 27.5 0 0 1 158.5 30 L 158.5 212  A 27.5 27.5 0 0 1 131 239.5 L 30 239.5  A 27.5 27.5 0 0 1 2.5 212 L 2.5 30  Z " stroke-width="5" stroke="url(#LinearGradient20)" fill="none" />
  </g>
</svg>