<?xml version="1.0" encoding="utf-8"?>
<svg version="1.1" xmlns:xlink="http://www.w3.org/1999/xlink" width="161px" height="242px" xmlns="http://www.w3.org/2000/svg">
  <g>
    <path d="M 1 30  A 29 29 0 0 1 30 1 L 131 1  A 29 29 0 0 1 160 30 L 160 212  A 29 29 0 0 1 131 241 L 30 241  A 29 29 0 0 1 1 212 L 1 30  Z " fill-rule="nonzero" fill="#ffffff" stroke="none" />
    <path d="M 0.5 30  A 29.5 29.5 0 0 1 30 0.5 L 131 0.5  A 29.5 29.5 0 0 1 160.5 30 L 160.5 212  A 29.5 29.5 0 0 1 131 241.5 L 30 241.5  A 29.5 29.5 0 0 1 0.5 212 L 0.5 30  Z " stroke-width="1" stroke="#d7d7d7" fill="none" stroke-opacity="0.996078431372549" />
  </g>
</svg>