<?xml version="1.0" encoding="utf-8"?>
<svg version="1.1" xmlns:xlink="http://www.w3.org/1999/xlink" width="60px" height="60px" xmlns="http://www.w3.org/2000/svg">
  <g transform="matrix(1 0 0 1 -468 -91 )">
    <path d="M 58.8068181818182 23.0113636363636  C 59.6022727272727 23.8068181818182  60 24.7727272727273  60 25.9090909090909  L 60 34.0909090909091  C 60 35.2272727272727  59.6022727272727 36.1931818181818  58.8068181818182 36.9886363636364  C 58.0113636363636 37.7840909090909  57.0454545454545 38.1818181818182  55.9090909090909 38  L 38 38  L 38 55.9090909090909  C 38.1818181818182 57.0454545454545  37.7840909090909 58.0113636363636  36.9886363636364 58.8068181818182  C 36.1931818181818 59.6022727272727  35.2272727272727 60  34.0909090909091 60  L 25.9090909090909 60  C 24.7727272727273 60  23.8068181818182 59.6022727272727  23.0113636363636 58.8068181818182  C 22.2159090909091 58.0113636363636  21.8181818181818 57.0454545454545  22 55.9090909090909  L 22 38  L 4.09090909090909 38  C 2.95454545454546 38.1818181818182  1.98863636363636 37.7840909090909  1.19318181818182 36.9886363636364  C 0.397727272727273 36.1931818181818  0 35.2272727272727  0 34.0909090909091  L 0 25.9090909090909  C 0 24.7727272727273  0.397727272727273 23.8068181818182  1.19318181818182 23.0113636363636  C 1.98863636363636 22.2159090909091  2.95454545454546 21.8181818181818  4.09090909090909 22  L 22 22  L 22 4.09090909090909  C 21.8181818181818 2.95454545454545  22.2159090909091 1.98863636363636  23.0113636363636 1.19318181818182  C 23.8068181818182 0.397727272727271  24.7727272727273 0  25.9090909090909 0  L 34.0909090909091 0  C 35.2272727272727 0  36.1931818181818 0.397727272727271  36.9886363636364 1.19318181818182  C 37.7840909090909 1.98863636363636  38.1818181818182 2.95454545454545  38 4.09090909090909  L 38 22  L 55.9090909090909 22  C 57.0454545454545 21.8181818181818  58.0113636363636 22.2159090909091  58.8068181818182 23.0113636363636  Z " fill-rule="nonzero" fill="#d7d7d7" stroke="none" transform="matrix(1 0 0 1 468 91 )" />
  </g>
</svg>