<?xml version="1.0" encoding="utf-8"?>
<svg version="1.1" xmlns:xlink="http://www.w3.org/1999/xlink" width="42px" height="36px" xmlns="http://www.w3.org/2000/svg">
  <g transform="matrix(1 0 0 1 -642 -1826 )">
    <path d="M 22.03125 35.578125  C 21.75 35.859375  21.40625 36  21 36  C 20.59375 36  20.25 35.859375  19.96875 35.578125  L 5.34375 21.46875  C 5.1875 21.34375  4.97265625 21.140625  4.69921875 20.859375  C 4.42578125 20.578125  3.9921875 20.06640625  3.3984375 19.32421875  C 2.8046875 18.58203125  2.2734375 17.8203125  1.8046875 17.0390625  C 1.3359375 16.2578125  0.91796875 15.3125  0.55078125 14.203125  C 0.18359375 13.09375  0 12.015625  0 10.96875  C 0 7.53125  0.9921875 4.84375  2.9765625 2.90625  C 4.9609375 0.96875  7.703125 0  11.203125 0  C 12.171875 0  13.16015625 0.167968749999998  14.16796875 0.503906250000001  C 15.17578125 0.839843749999997  16.11328125 1.29296875  16.98046875 1.86328125  C 17.84765625 2.43359375  18.59375 2.96875  19.21875 3.46875  C 19.84375 3.96875  20.4375 4.5  21 5.0625  C 21.5625 4.5  22.15625 3.96875  22.78125 3.46875  C 23.40625 2.96875  24.15234375 2.43359375  25.01953125 1.86328125  C 25.88671875 1.29296875  26.82421875 0.839843749999997  27.83203125 0.503906250000001  C 28.83984375 0.167968749999998  29.828125 0  30.796875 0  C 34.296875 0  37.0390625 0.96875  39.0234375 2.90625  C 41.0078125 4.84375  42 7.53125  42 10.96875  C 42 14.421875  40.2109375 17.9375  36.6328125 21.515625  L 22.03125 35.578125  Z " fill-rule="nonzero" fill="#a1aaa6" stroke="none" fill-opacity="0.996078431372549" transform="matrix(1 0 0 1 642 1826 )" />
  </g>
</svg>