<?xml version="1.0" encoding="utf-8"?>
<svg version="1.1" xmlns:xlink="http://www.w3.org/1999/xlink" width="41px" height="36px" xmlns="http://www.w3.org/2000/svg">
  <defs>
    <linearGradient gradientUnits="userSpaceOnUse" x1="0" y1="18" x2="41" y2="18" id="LinearGradient76">
      <stop id="Stop77" stop-color="#ff83a5" offset="0" />
      <stop id="Stop78" stop-color="#c280ff" offset="1" />
    </linearGradient>
  </defs>
  <g transform="matrix(1 0 0 1 -640 -780 )">
    <path d="M 21.5066964285714 35.578125  C 21.2321428571429 35.859375  20.8965773809524 36  20.5 36  C 20.1034226190476 36  19.7678571428571 35.859375  19.4933035714286 35.578125  L 5.21651785714286 21.46875  C 5.0639880952381 21.34375  4.85425967261905 21.140625  4.58733258928571 20.859375  C 4.32040550595238 20.578125  3.89713541666667 20.06640625  3.31752232142857 19.32421875  C 2.73790922619048 18.58203125  2.21930803571429 17.8203125  1.76171875 17.0390625  C 1.30412946428571 16.2578125  0.896112351190476 15.3125  0.537667410714286 14.203125  C 0.179222470238095 13.09375  0 12.015625  0 10.96875  C 0 7.53125  0.968563988095238 4.84375  2.90569196428571 2.90625  C 4.84281994047619 0.96875  7.51971726190476 0  10.9363839285714 0  C 11.882068452381 0  12.8468191964286 0.167968749999998  13.8306361607143 0.503906250000001  C 14.814453125 0.839843749999997  15.7296316964286 1.29296875  16.576171875 1.86328125  C 17.4227120535714 2.43359375  18.1510416666667 2.96875  18.7611607142857 3.46875  C 19.3712797619048 3.96875  19.9508928571429 4.5  20.5 5.0625  C 21.0491071428571 4.5  21.6287202380952 3.96875  22.2388392857143 3.46875  C 22.8489583333333 2.96875  23.5772879464286 2.43359375  24.423828125 1.86328125  C 25.2703683035714 1.29296875  26.185546875 0.839843749999997  27.1693638392857 0.503906250000001  C 28.1531808035714 0.167968749999998  29.1179315476191 0  30.0636160714286 0  C 33.4802827380952 0  36.1571800595238 0.96875  38.0943080357143 2.90625  C 40.0314360119048 4.84375  41 7.53125  41 10.96875  C 41 14.421875  39.2535342261905 17.9375  35.7606026785714 21.515625  L 21.5066964285714 35.578125  Z " fill-rule="nonzero" fill="url(#LinearGradient76)" stroke="none" transform="matrix(1 0 0 1 640 780 )" />
  </g>
</svg>