<?xml version="1.0" encoding="utf-8"?>
<svg version="1.1" xmlns:xlink="http://www.w3.org/1999/xlink" width="16px" height="16px" xmlns="http://www.w3.org/2000/svg">
  <g transform="matrix(1 0 0 1 -274 -867 )">
    <path d="M 282 867.5  C 286.2 867.5  289.5 870.8  289.5 875  C 289.5 879.2  286.2 882.5  282 882.5  C 277.8 882.5  274.5 879.2  274.5 875  C 274.5 870.8  277.8 867.5  282 867.5  Z " fill-rule="nonzero" fill="#ffffff" stroke="none" fill-opacity="0" />
    <path d="M 282 867.5  C 286.2 867.5  289.5 870.8  289.5 875  C 289.5 879.2  286.2 882.5  282 882.5  C 277.8 882.5  274.5 879.2  274.5 875  C 274.5 870.8  277.8 867.5  282 867.5  Z " stroke-width="1" stroke="#7f7f7f" fill="none" stroke-opacity="0.996078431372549" />
  </g>
</svg>