<?xml version="1.0" encoding="utf-8"?>
<svg version="1.1" xmlns:xlink="http://www.w3.org/1999/xlink" width="16px" height="16px" xmlns="http://www.w3.org/2000/svg">
  <g transform="matrix(1 0 0 1 -413 -867 )">
    <path d="M 421 867.5  C 425.2 867.5  428.5 870.8  428.5 875  C 428.5 879.2  425.2 882.5  421 882.5  C 416.8 882.5  413.5 879.2  413.5 875  C 413.5 870.8  416.8 867.5  421 867.5  Z " fill-rule="nonzero" fill="#ffffff" stroke="none" />
    <path d="M 421 867.5  C 425.2 867.5  428.5 870.8  428.5 875  C 428.5 879.2  425.2 882.5  421 882.5  C 416.8 882.5  413.5 879.2  413.5 875  C 413.5 870.8  416.8 867.5  421 867.5  Z " stroke-width="1" stroke="#555555" fill="none" stroke-opacity="0.996078431372549" />
  </g>
</svg>