<?xml version="1.0" encoding="utf-8"?>
<svg version="1.1" xmlns:xlink="http://www.w3.org/1999/xlink" width="16px" height="16px" xmlns="http://www.w3.org/2000/svg">
  <g transform="matrix(1 0 0 1 -310 -867 )">
    <path d="M 318 867.5  C 322.2 867.5  325.5 870.8  325.5 875  C 325.5 879.2  322.2 882.5  318 882.5  C 313.8 882.5  310.5 879.2  310.5 875  C 310.5 870.8  313.8 867.5  318 867.5  Z " fill-rule="nonzero" fill="#ffffff" stroke="none" />
    <path d="M 318 867.5  C 322.2 867.5  325.5 870.8  325.5 875  C 325.5 879.2  322.2 882.5  318 882.5  C 313.8 882.5  310.5 879.2  310.5 875  C 310.5 870.8  313.8 867.5  318 867.5  Z " stroke-width="1" stroke="#7f7f7f" fill="none" stroke-opacity="0.996078431372549" />
  </g>
</svg>