<?xml version="1.0" encoding="utf-8"?>
<svg version="1.1" xmlns:xlink="http://www.w3.org/1999/xlink" width="45px" height="39px" xmlns="http://www.w3.org/2000/svg">
  <g transform="matrix(1 0 0 1 -290 -1347 )">
    <path d="M 23.6049107142857 38.54296875  C 23.3035714285714 38.84765625  22.9352678571429 39  22.5 39  C 22.0647321428571 39  21.6964285714286 38.84765625  21.3950892857143 38.54296875  L 5.72544642857143 23.2578125  C 5.55803571428571 23.1223958333333  5.32784598214286 22.90234375  5.03487723214286 22.59765625  C 4.74190848214286 22.29296875  4.27734375 21.7386067708333  3.64118303571429 20.9345703125  C 3.00502232142857 20.1305338541667  2.43582589285714 19.3053385416667  1.93359375 18.458984375  C 1.43136160714286 17.6126302083333  0.983537946428572 16.5885416666667  0.590122767857143 15.38671875  C 0.196707589285714 14.1848958333333  0 13.0169270833333  0 11.8828125  C 0 8.15885416666666  1.06305803571429 5.24739583333333  3.18917410714286 3.1484375  C 5.31529017857143 1.04947916666667  8.25334821428571 0  12.0033482142857 0  C 13.0412946428571 0  14.1001674107143 0.181966145833331  15.1799665178571 0.545898437500001  C 16.259765625 0.909830729166663  17.2642299107143 1.40071614583333  18.193359375 2.0185546875  C 19.1224888392857 2.63639322916666  19.921875 3.21614583333333  20.5915178571429 3.7578125  C 21.2611607142857 4.29947916666666  21.8973214285714 4.875  22.5 5.484375  C 23.1026785714286 4.875  23.7388392857143 4.29947916666666  24.4084821428571 3.7578125  C 25.078125 3.21614583333333  25.8775111607143 2.63639322916666  26.806640625 2.0185546875  C 27.7357700892857 1.40071614583333  28.740234375 0.909830729166663  29.8200334821429 0.545898437500001  C 30.8998325892857 0.181966145833331  31.9587053571429 0  32.9966517857143 0  C 36.7466517857143 0  39.6847098214286 1.04947916666667  41.8108258928571 3.1484375  C 43.9369419642857 5.24739583333333  45 8.15885416666666  45 11.8828125  C 45 15.6236979166667  43.0831473214286 19.4322916666667  39.2494419642857 23.30859375  L 23.6049107142857 38.54296875  Z " fill-rule="nonzero" fill="#a1aaa6" stroke="none" fill-opacity="0.996078431372549" transform="matrix(1 0 0 1 290 1347 )" />
  </g>
</svg>